<?xml version="1.0" encoding="UTF-8"?>
<!DOCTYPE svg PUBLIC "-//W3C//DTD SVG 1.1//EN" "http://www.w3.org/Graphics/SVG/1.1/DTD/svg11.dtd">
<svg xmlns="http://www.w3.org/2000/svg" version="1.1" width="512px" height="512px" style="shape-rendering:geometricPrecision; text-rendering:geometricPrecision; image-rendering:optimizeQuality; fill-rule:evenodd; clip-rule:evenodd" xmlns:xlink="http://www.w3.org/1999/xlink">
<g><path style="opacity:0.994" fill="#ebeaec" d="M 99.5,41.5 C 203.501,41.3333 307.501,41.5 411.5,42C 444.639,47.1392 463.806,66.3058 469,99.5C 469.667,203.5 469.667,307.5 469,411.5C 463.806,444.694 444.639,463.861 411.5,469C 307.5,469.667 203.5,469.667 99.5,469C 66.3058,463.806 47.1392,444.639 42,411.5C 41.3333,307.5 41.3333,203.5 42,99.5C 47.3455,66.3216 66.5122,46.9883 99.5,41.5 Z"/></g>
<g><path style="opacity:1" fill="#f91529" d="M 250.5,127.5 C 256.563,126.838 262.23,128.004 267.5,131C 291.036,156.201 314.203,181.701 337,207.5C 344.105,221.849 340.605,232.683 326.5,240C 319.266,242.596 312.599,241.596 306.5,237C 289.374,218.554 272.374,200.054 255.5,181.5C 240.474,197.026 225.974,213.026 212,229.5C 200.188,243.983 187.521,244.983 174,232.5C 169.385,224.139 169.385,215.806 174,207.5C 196.797,181.701 219.964,156.201 243.5,131C 245.925,129.787 248.259,128.621 250.5,127.5 Z"/></g>
<g><path style="opacity:1" fill="#f91529" d="M 186.5,269.5 C 193.009,269.127 199.009,270.627 204.5,274C 221.626,292.446 238.626,310.946 255.5,329.5C 270.526,313.974 285.026,297.974 299,281.5C 310.699,266.701 323.366,265.701 337,278.5C 342.844,290.034 341.177,300.367 332,309.5C 310.5,333 289,356.5 267.5,380C 259.5,384.667 251.5,384.667 243.5,380C 219.964,354.799 196.797,329.299 174,303.5C 166.684,287.818 170.851,276.485 186.5,269.5 Z"/></g>
</svg>
